<svg xmlns="http://www.w3.org/2000/svg" viewBox="0 0 1280 720" preserveAspectRatio="xMidYMid slice">
<rect width="1280" height="720" fill="#0A0E14"/>
<rect width="1280" height="720" fill="#0F1520" opacity="0.4"/>
<line x1="0" y1="0" x2="0" y2="720" stroke="#33405A" stroke-width="1" opacity="0.25"/><line x1="80" y1="0" x2="80" y2="720" stroke="#33405A" stroke-width="1" opacity="0.25"/><line x1="160" y1="0" x2="160" y2="720" stroke="#33405A" stroke-width="1" opacity="0.25"/><line x1="240" y1="0" x2="240" y2="720" stroke="#33405A" stroke-width="1" opacity="0.25"/><line x1="320" y1="0" x2="320" y2="720" stroke="#33405A" stroke-width="1" opacity="0.25"/><line x1="400" y1="0" x2="400" y2="720" stroke="#33405A" stroke-width="1" opacity="0.25"/><line x1="480" y1="0" x2="480" y2="720" stroke="#33405A" stroke-width="1" opacity="0.25"/><line x1="560" y1="0" x2="560" y2="720" stroke="#33405A" stroke-width="1" opacity="0.25"/><line x1="640" y1="0" x2="640" y2="720" stroke="#33405A" stroke-width="1" opacity="0.25"/><line x1="720" y1="0" x2="720" y2="720" stroke="#33405A" stroke-width="1" opacity="0.25"/><line x1="800" y1="0" x2="800" y2="720" stroke="#33405A" stroke-width="1" opacity="0.25"/><line x1="880" y1="0" x2="880" y2="720" stroke="#33405A" stroke-width="1" opacity="0.25"/><line x1="960" y1="0" x2="960" y2="720" stroke="#33405A" stroke-width="1" opacity="0.25"/><line x1="1040" y1="0" x2="1040" y2="720" stroke="#33405A" stroke-width="1" opacity="0.25"/><line x1="1120" y1="0" x2="1120" y2="720" stroke="#33405A" stroke-width="1" opacity="0.25"/><line x1="1200" y1="0" x2="1200" y2="720" stroke="#33405A" stroke-width="1" opacity="0.25"/><line x1="1280" y1="0" x2="1280" y2="720" stroke="#33405A" stroke-width="1" opacity="0.25"/><line x1="0" y1="0" x2="1280" y2="0" stroke="#33405A" stroke-width="1" opacity="0.25"/><line x1="0" y1="80" x2="1280" y2="80" stroke="#33405A" stroke-width="1" opacity="0.25"/><line x1="0" y1="160" x2="1280" y2="160" stroke="#33405A" stroke-width="1" opacity="0.25"/><line x1="0" y1="240" x2="1280" y2="240" stroke="#33405A" stroke-width="1" opacity="0.25"/><line x1="0" y1="320" x2="1280" y2="320" stroke="#33405A" stroke-width="1" opacity="0.25"/><line x1="0" y1="400" x2="1280" y2="400" stroke="#33405A" stroke-width="1" opacity="0.25"/><line x1="0" y1="480" x2="1280" y2="480" stroke="#33405A" stroke-width="1" opacity="0.25"/><line x1="0" y1="560" x2="1280" y2="560" stroke="#33405A" stroke-width="1" opacity="0.25"/><line x1="0" y1="640" x2="1280" y2="640" stroke="#33405A" stroke-width="1" opacity="0.25"/><line x1="0" y1="720" x2="1280" y2="720" stroke="#33405A" stroke-width="1" opacity="0.25"/>
<circle cx="1050" cy="180" r="260" fill="#FF2E97" opacity="0.06"/>
<circle cx="230" cy="560" r="300" fill="#00F5D4" opacity="0.06"/>
</svg>