<svg xmlns="http://www.w3.org/2000/svg" viewBox="0 0 300 220" role="img" aria-label="Old crowd photo with a visible 2016 event poster in the background">
  <defs>
    <linearGradient id="sky" x1="0" y1="0" x2="0" y2="1">
      <stop offset="0" stop-color="#18243a"/>
      <stop offset="1" stop-color="#0f1520"/>
    </linearGradient>
    <linearGradient id="neon" x1="0" y1="0" x2="1" y2="1">
      <stop offset="0" stop-color="#00f5d4"/>
      <stop offset="1" stop-color="#ff2e97"/>
    </linearGradient>
  </defs>
  <rect width="300" height="220" fill="#0a0e14"/>
  <rect x="8" y="8" width="284" height="204" rx="8" fill="url(#sky)" stroke="#00f5d4" stroke-opacity=".35"/>
  <rect x="14" y="14" width="272" height="156" rx="4" fill="#172033"/>
  <path d="M18 82c34-18 58-22 92-6 28 14 55 12 82-4 34-20 60-18 90 2v96H18z" fill="#24324b"/>
  <path d="M16 124h270v46H16z" fill="#101724"/>
  <rect x="26" y="19" width="78" height="48" rx="4" fill="#f3f7ff" stroke="#ff2e97" stroke-width="2"/>
  <text x="65" y="38" text-anchor="middle" font-family="Consolas, Menlo, monospace" font-size="9" font-weight="700" fill="#25314a">SUMMER RALLY</text>
  <text x="65" y="59" text-anchor="middle" font-family="Consolas, Menlo, monospace" font-size="24" font-weight="800" fill="#ff2e97">2016</text>
  <rect x="206" y="42" width="58" height="32" rx="3" fill="#26354f" stroke="#65748c"/>
  <path d="M214 56h42M214 64h24" stroke="#a9b7ca" stroke-width="3" stroke-linecap="round"/>
  <g fill="#070b12">
    <circle cx="54" cy="128" r="10"/><rect x="45" y="139" width="18" height="31" rx="8"/>
    <circle cx="88" cy="120" r="11"/><rect x="78" y="132" width="22" height="38" rx="9"/>
    <circle cx="128" cy="126" r="10"/><rect x="119" y="137" width="19" height="33" rx="8"/>
    <circle cx="166" cy="118" r="12"/><rect x="155" y="131" width="24" height="39" rx="10"/>
    <circle cx="210" cy="126" r="10"/><rect x="200" y="138" width="20" height="32" rx="8"/>
    <circle cx="246" cy="122" r="11"/><rect x="236" y="134" width="22" height="36" rx="9"/>
  </g>
  <path d="M35 176h230" stroke="url(#neon)" stroke-width="2" stroke-opacity=".7"/>
  <rect x="12" y="183" width="276" height="22" rx="4" fill="#0a0e14" fill-opacity=".84"/>
  <text x="22" y="198" font-family="Consolas, Menlo, monospace" font-size="11" fill="#a9b7ca">metadata mismatch: real image, wrong year, reused context</text>
</svg>
